<svg width="155" height="48" viewBox="0 0 155 48" fill="none" xmlns="http://www.w3.org/2000/svg">
<rect x="1" y="1" width="153" height="46" rx="3" stroke="#202025" stroke-width="2"/>
<path d="M40.5824 22.4347H38.4517C38.4233 22.2159 38.3651 22.0185 38.277 21.8423C38.1889 21.6662 38.0724 21.5156 37.9276 21.3906C37.7827 21.2656 37.6108 21.1705 37.4119 21.1051C37.2159 21.0369 36.9986 21.0028 36.7599 21.0028C36.3366 21.0028 35.9716 21.1065 35.6648 21.3139C35.3608 21.5213 35.1264 21.821 34.9616 22.2131C34.7997 22.6051 34.7188 23.0795 34.7188 23.6364C34.7188 24.2159 34.8011 24.7017 34.9659 25.0938C35.1335 25.483 35.3679 25.777 35.669 25.9759C35.973 26.1719 36.3324 26.2699 36.7472 26.2699C36.9801 26.2699 37.1918 26.2401 37.3821 26.1804C37.5753 26.1207 37.7443 26.0341 37.8892 25.9205C38.0369 25.804 38.1577 25.6634 38.2514 25.4986C38.348 25.331 38.4148 25.142 38.4517 24.9318L40.5824 24.9446C40.5455 25.331 40.4332 25.7116 40.2457 26.0866C40.0611 26.4616 39.8068 26.804 39.483 27.1136C39.1591 27.4205 38.7642 27.6648 38.2983 27.8466C37.8352 28.0284 37.304 28.1193 36.7045 28.1193C35.9148 28.1193 35.2074 27.946 34.5824 27.5994C33.9602 27.25 33.4688 26.7415 33.108 26.0739C32.7472 25.4062 32.5668 24.5937 32.5668 23.6364C32.5668 22.6761 32.75 21.8622 33.1165 21.1946C33.483 20.527 33.9787 20.0199 34.6037 19.6733C35.2287 19.3267 35.929 19.1534 36.7045 19.1534C37.233 19.1534 37.7216 19.2273 38.1705 19.375C38.6193 19.5199 39.0142 19.733 39.3551 20.0142C39.696 20.2926 39.973 20.6349 40.1861 21.0412C40.3991 21.4474 40.5312 21.9119 40.5824 22.4347ZM43.8294 28V19.2727H47.4345C48.0879 19.2727 48.6519 19.3906 49.1263 19.6264C49.6036 19.8594 49.9715 20.1946 50.23 20.6321C50.4885 21.0668 50.6178 21.5824 50.6178 22.179C50.6178 22.7841 50.4857 23.2983 50.2215 23.7216C49.9573 24.142 49.5823 24.4631 49.0965 24.6847C48.6107 24.9034 48.0354 25.0128 47.3706 25.0128H45.0908V23.3509H46.9786C47.2967 23.3509 47.5624 23.3097 47.7754 23.2273C47.9913 23.142 48.1547 23.0142 48.2655 22.8438C48.3763 22.6705 48.4317 22.4489 48.4317 22.179C48.4317 21.9091 48.3763 21.6861 48.2655 21.5099C48.1547 21.331 47.9913 21.1974 47.7754 21.1094C47.5595 21.0185 47.2939 20.973 46.9786 20.973H45.9388V28H43.8294ZM48.7428 24.0114L50.9161 28H48.6149L46.4842 24.0114H48.7428ZM53.8147 28V19.2727H59.9V20.9858H55.9241V22.7756H59.5889V24.4929H55.9241V26.2869H59.9V28H53.8147ZM65.1488 28H62.8817L65.8263 19.2727H68.6346L71.5792 28H69.3121L67.2624 21.4716H67.1942L65.1488 28ZM64.8462 24.5653H69.5848V26.1676H64.8462V24.5653ZM73.1834 20.9858V19.2727H80.5599V20.9858H77.9136V28H75.834V20.9858H73.1834ZM83.63 28V19.2727H89.7153V20.9858H85.7394V22.7756H89.4042V24.4929H85.7394V26.2869H89.7153V28H83.63Z" fill="#202025"/>
<path d="M105 24H117" stroke="#202025" stroke-width="2" stroke-linecap="round" stroke-linejoin="round"/>
<path d="M111 30L111 18" stroke="#202025" stroke-width="2" stroke-linecap="round" stroke-linejoin="round"/>
</svg>
